<svg id="visual" viewBox="0 0 960 300" width="960" height="300" xmlns="http://www.w3.org/2000/svg" xmlns:xlink="http://www.w3.org/1999/xlink" version="1.1"><path d="M473 0L491.5 7.2C510 14.3 547 28.7 534.2 43C521.3 57.3 458.7 71.7 463.5 86C468.3 100.3 540.7 114.7 567.2 128.8C593.7 143 574.3 157 542.8 171.2C511.3 185.3 467.7 199.7 466.7 214C465.7 228.3 507.3 242.7 514.2 257C521 271.3 493 285.7 479 292.8L465 300L0 300L0 292.8C0 285.7 0 271.3 0 257C0 242.7 0 228.3 0 214C0 199.7 0 185.3 0 171.2C0 157 0 143 0 128.8C0 114.7 0 100.3 0 86C0 71.7 0 57.3 0 43C0 28.7 0 14.3 0 7.2L0 0Z" fill="#19b45c" stroke-linecap="round" stroke-linejoin="miter"></path></svg>